<svg width="108" height="32" xmlns="http://www.w3.org/2000/svg"><defs><linearGradient x1="91.536%" y1="4.839%" x2="-37.559%" y2="71.968%" id="a"><stop stop-color="#00A0FF" offset="0%"/><stop stop-color="#00A1FF" offset=".657%"/><stop stop-color="#00BEFF" offset="26.01%"/><stop stop-color="#00D2FF" offset="51.22%"/><stop stop-color="#00DFFF" offset="76.04%"/><stop stop-color="#00E3FF" offset="100%"/></linearGradient><linearGradient x1="107.728%" y1="49.428%" x2="-130.665%" y2="49.428%" id="b"><stop stop-color="#FFE000" offset="0%"/><stop stop-color="#FFBD00" offset="40.87%"/><stop stop-color="orange" offset="77.54%"/><stop stop-color="#FF9C00" offset="100%"/></linearGradient><linearGradient x1="86.389%" y1="17.815%" x2="-49.888%" y2="194.393%" id="c"><stop stop-color="#FF3A44" offset="0%"/><stop stop-color="#C31162" offset="100%"/></linearGradient><linearGradient x1="-18.579%" y1="-54.527%" x2="42.275%" y2="24.69%" id="d"><stop stop-color="#32A071" offset="0%"/><stop stop-color="#2DA771" offset="6.85%"/><stop stop-color="#15CF74" offset="47.62%"/><stop stop-color="#06E775" offset="80.09%"/><stop stop-color="#00F076" offset="100%"/></linearGradient></defs><g fill-rule="nonzero" fill="none"><path d="M104 32H4c-2.24 0-4-1.76-4-4V4c0-2.24 1.76-4 4-4h100c2.24 0 4 1.76 4 4v24c0 2.16-1.76 4-4 4z" fill="#000"/><path d="M1.12.4c-.24.24-.4.64-.4 1.12V19.2c0 .48.16.88.4 1.12l.08.08 9.92-9.92v-.16L1.12.4z" fill="url(#a)" transform="translate(7.2 5.6)"/><path d="M14.4 13.84l-3.28-3.28v-.24l3.28-3.28.08.08 3.92 2.24c1.12.64 1.12 1.68 0 2.32l-4 2.16z" fill="url(#b)" transform="translate(7.2 5.6)"/><path d="M14.48 13.76l-3.36-3.36-10 10c.4.4.96.4 1.68.08l11.68-6.72" fill="url(#c)" transform="translate(7.2 5.6)"/><path d="M14.48 7.04L2.8.4C2.08 0 1.52.08 1.12.48l10 9.92 3.36-3.36z" fill="url(#d)" transform="translate(7.2 5.6)"/><g fill="#000"><path d="M21.6 19.28L10 25.84c-.64.4-1.2.32-1.6 0l-.08.08.08.08c.4.32.96.4 1.6 0l11.6-6.72z" opacity=".2"/><path d="M8.32 25.84C8.08 25.6 8 25.2 8 24.72v.08c0 .48.16.88.4 1.12v-.08h-.08z" opacity=".12"/></g><path d="M25.6 17.04l-4 2.24.08.08 3.92-2.24c.56-.32.8-.72.8-1.12 0 .4-.32.72-.8 1.04z" fill="#000" opacity=".12"/><path d="M10 6.08l15.6 8.88c.48.32.8.64.8 1.04 0-.4-.24-.8-.8-1.12L10 6c-1.12-.64-2-.08-2 1.2v.08c0-1.28.88-1.84 2-1.2z" fill="#FFF" opacity=".25"/><g fill="#FFF"><path d="M53.6 18.16c-1.92 0-3.44 1.44-3.44 3.44 0 1.92 1.52 3.44 3.44 3.44s3.44-1.44 3.44-3.44c0-2.08-1.52-3.44-3.44-3.44zm0 5.44c-1.04 0-1.92-.88-1.92-2.08 0-1.2.88-2.08 1.92-2.08s1.92.8 1.92 2.08c0 1.2-.88 2.08-1.92 2.08zm-7.44-5.44c-1.92 0-3.44 1.44-3.44 3.44 0 1.92 1.52 3.44 3.44 3.44s3.44-1.44 3.44-3.44c0-2.08-1.52-3.44-3.44-3.44zm0 5.44c-1.04 0-1.92-.88-1.92-2.08 0-1.2.88-2.08 1.92-2.08s1.92.8 1.92 2.08c0 1.2-.88 2.08-1.92 2.08zm-8.88-4.4v1.44h3.44c-.08.8-.4 1.44-.8 1.84-.48.48-1.28 1.04-2.64 1.04-2.16 0-3.76-1.68-3.76-3.84s1.68-3.84 3.76-3.84c1.12 0 2 .48 2.64 1.04l1.04-1.04c-.88-.8-2-1.44-3.6-1.44-2.88 0-5.36 2.4-5.36 5.28 0 2.88 2.48 5.28 5.36 5.28 1.6 0 2.72-.48 3.68-1.52.96-.96 1.28-2.32 1.28-3.36 0-.32 0-.64-.08-.88h-4.96zm36.32 1.12c-.32-.8-1.12-2.16-2.88-2.16-1.76 0-3.2 1.36-3.2 3.44 0 1.92 1.44 3.44 3.36 3.44 1.52 0 2.48-.96 2.8-1.52l-1.12-.8c-.4.56-.88.96-1.68.96-.8 0-1.28-.32-1.68-1.04l4.56-1.92-.16-.4zm-4.64 1.12c0-1.28 1.04-2 1.76-2 .56 0 1.12.32 1.28.72l-3.04 1.28zm-3.76 3.28h1.52v-10H65.2v10zm-2.4-5.84c-.4-.4-1.04-.8-1.84-.8-1.68 0-3.28 1.52-3.28 3.44s1.52 3.36 3.28 3.36c.8 0 1.44-.4 1.76-.8h.08v.48c0 1.28-.72 2-1.84 2-.88 0-1.52-.64-1.68-1.2l-1.28.56c.4.88 1.36 2 3.04 2 1.76 0 3.2-1.04 3.2-3.52v-6.08H62.8v.56zm-1.76 4.72c-1.04 0-1.92-.88-1.92-2.08 0-1.2.88-2.08 1.92-2.08s1.84.88 1.84 2.08c0 1.2-.8 2.08-1.84 2.08zm19.52-8.88h-3.6v10h1.52v-3.76h2.08c1.68 0 3.28-1.2 3.28-3.12 0-1.92-1.6-3.12-3.28-3.12zm.08 4.8h-2.16v-3.44h2.16c1.12 0 1.76.96 1.76 1.68-.08.88-.72 1.76-1.76 1.76zm9.2-1.44c-1.12 0-2.24.48-2.64 1.52l1.36.56c.32-.56.8-.72 1.36-.72.8 0 1.52.48 1.6 1.28v.08c-.24-.16-.88-.4-1.52-.4-1.44 0-2.88.8-2.88 2.24 0 1.36 1.2 2.24 2.48 2.24 1.04 0 1.52-.48 1.92-.96h.08v.8h1.44v-3.84c-.16-1.76-1.52-2.8-3.2-2.8zm-.16 5.52c-.48 0-1.2-.24-1.2-.88 0-.8.88-1.04 1.6-1.04.64 0 .96.16 1.36.32-.16.96-.96 1.6-1.76 1.6zm8.4-5.28l-1.68 4.32h-.08l-1.76-4.32h-1.6l2.64 6.08-1.52 3.36h1.52l4.08-9.44h-1.6zm-13.44 6.4h1.52v-10h-1.52v10zM36.84 8.007c0 .942-.282 1.65-.846 2.127-.523.439-1.265.659-2.227.659-.477 0-.885-.021-1.226-.063V5.586a9.05 9.05 0 0 1 1.444-.11c.916 0 1.606.2 2.072.598.521.45.783 1.095.783 1.933zm-.884.023c0-.61-.162-1.078-.485-1.404-.323-.326-.795-.49-1.417-.49-.264 0-.488.018-.675.055v3.911c.103.016.292.024.567.024.641 0 1.136-.179 1.485-.536.349-.356.525-.876.525-1.56zM41.527 8.83c0 .58-.165 1.055-.497 1.428-.347.383-.807.574-1.381.574-.554 0-.995-.183-1.323-.551-.328-.367-.492-.83-.492-1.389 0-.584.168-1.063.508-1.435.339-.372.795-.559 1.37-.559.553 0 .998.184 1.334.55.32.358.481.818.481 1.382zm-.87.027c0-.348-.075-.647-.224-.895-.176-.301-.427-.452-.752-.452-.337 0-.593.15-.769.452-.15.248-.225.552-.225.91 0 .348.075.646.225.895.182.301.434.451.76.451.32 0 .572-.152.753-.459.155-.253.233-.554.233-.902zM47.812 6.975l-1.18 3.771h-.768l-.489-1.637a12.256 12.256 0 0 1-.303-1.219h-.015a8.92 8.92 0 0 1-.303 1.219l-.52 1.637h-.776l-1.11-3.77h.862l.426 1.792c.103.424.188.828.256 1.21h.015c.063-.315.166-.716.311-1.202l.536-1.8h.683l.513 1.762c.124.43.224.843.302 1.241h.023c.057-.388.143-.801.256-1.241l.458-1.762h.823zM52.158 10.746h-.838v-2.16c0-.665-.253-.998-.76-.998a.757.757 0 0 0-.606.274.974.974 0 0 0-.232.647v2.237h-.839V8.053c0-.331-.01-.69-.03-1.08h.737l.039.59h.023c.098-.183.243-.334.434-.455.228-.14.482-.212.76-.212.352 0 .645.114.878.342.29.279.434.696.434 1.25v2.258zM54.47 10.746h-.837V5.245h.837zM59.406 8.83c0 .58-.165 1.055-.496 1.428-.348.383-.808.574-1.382.574-.554 0-.995-.183-1.323-.551-.328-.367-.492-.83-.492-1.389 0-.584.169-1.063.508-1.435.339-.372.795-.559 1.369-.559.554 0 .998.184 1.336.55.32.358.48.818.48 1.382zm-.87.027c0-.348-.075-.647-.225-.895-.175-.301-.426-.452-.751-.452-.338 0-.594.15-.769.452-.15.248-.225.552-.225.91 0 .348.076.646.225.895.182.301.435.451.761.451.32 0 .57-.152.751-.459.156-.253.233-.554.233-.902zM63.464 10.746h-.753l-.062-.434h-.023c-.258.346-.625.52-1.102.52-.356 0-.644-.114-.86-.342a1.071 1.071 0 0 1-.296-.768c0-.46.192-.812.578-1.055.386-.243.928-.362 1.627-.357v-.07c0-.497-.261-.745-.783-.745-.372 0-.7.094-.984.28l-.17-.551c.35-.217.783-.326 1.294-.326.985 0 1.48.52 1.48 1.56v1.39c0 .376.018.676.054.898zm-.87-1.296V8.87c-.925-.016-1.388.237-1.388.76 0 .197.053.344.161.442a.586.586 0 0 0 .41.147.847.847 0 0 0 .513-.174.714.714 0 0 0 .304-.594zM68.228 10.746h-.744l-.04-.605h-.022c-.238.46-.643.691-1.212.691a1.42 1.42 0 0 1-1.132-.535c-.3-.357-.45-.82-.45-1.389 0-.61.162-1.105.489-1.482a1.503 1.503 0 0 1 1.164-.528c.506 0 .86.17 1.062.512h.016V5.245h.84V9.73c0 .368.009.706.029 1.016zm-.869-1.59v-.629a.955.955 0 0 0-.326-.772.824.824 0 0 0-.561-.205.86.86 0 0 0-.738.372c-.178.25-.268.567-.268.955 0 .373.085.675.257.908a.863.863 0 0 0 .733.372.808.808 0 0 0 .662-.31c.162-.192.241-.422.241-.691zM75.398 8.83c0 .58-.165 1.055-.496 1.428-.348.383-.807.574-1.382.574-.553 0-.994-.183-1.323-.551-.328-.367-.492-.83-.492-1.389 0-.584.169-1.063.508-1.435.339-.372.795-.559 1.37-.559.553 0 .999.184 1.335.55.32.358.48.818.48 1.382zm-.868.027c0-.348-.076-.647-.225-.895-.177-.301-.427-.452-.753-.452-.336 0-.592.15-.769.452-.15.248-.225.552-.225.91 0 .348.076.646.225.895.182.301.435.451.761.451.32 0 .572-.152.753-.459.154-.253.233-.554.233-.902zM79.906 10.746h-.837v-2.16c0-.665-.253-.998-.761-.998a.754.754 0 0 0-.605.274.97.97 0 0 0-.233.647v2.237h-.839V8.053c0-.331-.01-.69-.03-1.08h.737l.039.59h.023c.098-.183.244-.334.434-.455a1.42 1.42 0 0 1 .761-.212c.351 0 .644.114.877.342.29.279.434.696.434 1.25v2.258zM85.549 7.603h-.923v1.832c0 .466.164.699.488.699.15 0 .276-.013.374-.04l.022.636a1.884 1.884 0 0 1-.652.094c-.33 0-.588-.1-.775-.302-.187-.202-.28-.541-.28-1.017V7.603h-.551v-.628h.551v-.691l.822-.248v.938h.923v.63zM89.987 10.746h-.839V8.602c0-.676-.253-1.014-.76-1.014-.388 0-.654.196-.8.588-.024.082-.038.183-.038.302v2.268h-.838V5.245h.838v2.273h.016c.264-.414.642-.62 1.132-.62.348 0 .635.113.863.341.284.284.426.707.426 1.265v2.242zM94.566 8.682c0 .15-.012.277-.032.38H92.02c.011.373.131.657.364.854.213.176.487.264.823.264.372 0 .711-.06 1.017-.178l.131.582c-.357.155-.778.233-1.265.233-.584 0-1.044-.172-1.377-.516-.335-.344-.5-.806-.5-1.385 0-.569.154-1.042.465-1.42.325-.403.764-.605 1.319-.605.542 0 .954.202 1.233.605.224.32.336.716.336 1.186zm-.8-.216a1.129 1.129 0 0 0-.163-.644c-.145-.233-.367-.35-.667-.35a.796.796 0 0 0-.667.342 1.27 1.27 0 0 0-.249.652h1.746z"/></g></g></svg>